<?xml version="1.0" standalone="no"?>
<!DOCTYPE svg PUBLIC "-//W3C//DTD SVG 20010904//EN"
 "http://www.w3.org/TR/2001/REC-SVG-20010904/DTD/svg10.dtd">
<svg version="1.0" xmlns="http://www.w3.org/2000/svg"
 width="1664.000000pt" height="1664.000000pt" viewBox="0 0 1664.000000 1664.000000"
 preserveAspectRatio="xMidYMid meet">

<g transform="translate(0.000000,1664.000000) scale(0.100000,-0.100000)"
fill="#000000" stroke="none">
<path d="M40 8458 l0 -8183 8265 0 8265 0 0 8183 0 8182 -8265 0 -8265 0 0
-8182z m15760 1020 c0 -3538 1 -6881 2 -7428 l3 -995 -7500 0 -7500 0 -2 7415
c-2 4078 -1 7421 2 7428 3 9 1512 12 7500 12 l7495 0 0 -6432z"/>
<path d="M8228 14308 c-137 -270 -1047 -2027 -1536 -2963 -1084 -2079 -1501
-2854 -2160 -4020 -300 -531 -1667 -2925 -2119 -3710 -126 -220 -309 -537
-405 -705 -97 -168 -198 -344 -226 -392 l-50 -88 6569 0 c3613 0 6569 2 6569
4 0 3 -183 321 -570 991 -92 160 -318 553 -502 875 -430 750 -1042 1820 -1263
2205 -637 1112 -1052 1856 -1550 2785 -321 598 -1208 2290 -1822 3475 -83 160
-215 414 -294 565 -78 151 -236 457 -350 680 -114 223 -212 411 -216 418 -5 8
-31 -33 -75 -120z m310 -3788 c383 -678 425 -753 1352 -2385 378 -665 571
-1003 1228 -2155 506 -887 702 -1232 890 -1562 96 -169 99 -177 69 -162 -18 9
-275 156 -572 327 -297 171 -618 355 -713 410 -95 55 -174 98 -176 96 -1 -2
-17 -42 -36 -89 -130 -337 -308 -610 -559 -860 -75 -75 -182 -171 -239 -214
-912 -691 -2138 -669 -3019 53 -322 263 -566 598 -727 997 -27 65 -50 108 -57
106 -12 -3 -307 -172 -954 -547 -388 -225 -516 -297 -520 -293 -2 2 18 42 44
88 82 147 1804 3180 2381 4195 330 579 656 1155 905 1595 120 212 266 471 326
576 60 106 114 204 120 218 7 15 16 23 20 19 4 -5 111 -190 237 -413z"/>
<path d="M8060 7244 c-164 -30 -367 -111 -505 -203 -373 -247 -605 -678 -605
-1125 0 -680 496 -1251 1169 -1347 52 -7 144 -10 245 -6 204 7 342 39 512 121
399 192 665 530 760 966 26 119 26 400 1 520 -90 418 -357 769 -731 957 -95
48 -259 100 -369 118 -114 18 -373 18 -477 -1z"/>
</g>
</svg>
